<mxfile host="app.diagrams.net" modified="2020-12-02T02:18:23.053Z" agent="5.0 (Windows NT 10.0; Win64; x64) AppleWebKit/537.36 (KHTML, like Gecko) Chrome/87.0.4280.66 Safari/537.36" etag="wokRDv8iR9mUQMRsVIpY" version="13.10.5" type="github">
  <diagram id="poTkf_g3jL_P8GmX6jAv" name="Page-1">
    <mxGraphModel dx="1038" dy="548" grid="1" gridSize="10" guides="1" tooltips="1" connect="1" arrows="1" fold="1" page="1" pageScale="1" pageWidth="827" pageHeight="1169" math="0" shadow="0">
      <root>
        <mxCell id="0" />
        <mxCell id="1" parent="0" />
        <mxCell id="Hs5gXcW-IA7D_YXBJcAZ-1" value="" style="edgeStyle=orthogonalEdgeStyle;rounded=0;orthogonalLoop=1;jettySize=auto;html=1;fontSize=16;" parent="1" source="Hs5gXcW-IA7D_YXBJcAZ-6" target="Hs5gXcW-IA7D_YXBJcAZ-10" edge="1">
          <mxGeometry relative="1" as="geometry" />
        </mxCell>
        <mxCell id="Hs5gXcW-IA7D_YXBJcAZ-2" style="edgeStyle=orthogonalEdgeStyle;rounded=0;orthogonalLoop=1;jettySize=auto;html=1;fontSize=16;" parent="1" source="Hs5gXcW-IA7D_YXBJcAZ-6" target="Hs5gXcW-IA7D_YXBJcAZ-15" edge="1">
          <mxGeometry relative="1" as="geometry" />
        </mxCell>
        <mxCell id="Hs5gXcW-IA7D_YXBJcAZ-3" style="edgeStyle=orthogonalEdgeStyle;rounded=0;orthogonalLoop=1;jettySize=auto;html=1;fontSize=16;" parent="1" source="Hs5gXcW-IA7D_YXBJcAZ-6" target="Hs5gXcW-IA7D_YXBJcAZ-17" edge="1">
          <mxGeometry relative="1" as="geometry" />
        </mxCell>
        <mxCell id="Hs5gXcW-IA7D_YXBJcAZ-4" style="edgeStyle=orthogonalEdgeStyle;rounded=0;orthogonalLoop=1;jettySize=auto;html=1;fontSize=16;" parent="1" source="Hs5gXcW-IA7D_YXBJcAZ-6" target="Hs5gXcW-IA7D_YXBJcAZ-22" edge="1">
          <mxGeometry relative="1" as="geometry" />
        </mxCell>
        <mxCell id="Hs5gXcW-IA7D_YXBJcAZ-6" value="武汉大学专题信息查询系统" style="rounded=0;whiteSpace=wrap;html=1;fontSize=16;fontStyle=1" parent="1" vertex="1">
          <mxGeometry x="499" y="70" width="208" height="60" as="geometry" />
        </mxCell>
        <mxCell id="Hs5gXcW-IA7D_YXBJcAZ-7" style="edgeStyle=orthogonalEdgeStyle;rounded=0;orthogonalLoop=1;jettySize=auto;html=1;entryX=0.5;entryY=0;entryDx=0;entryDy=0;fontSize=16;" parent="1" source="Hs5gXcW-IA7D_YXBJcAZ-10" target="Hs5gXcW-IA7D_YXBJcAZ-29" edge="1">
          <mxGeometry relative="1" as="geometry" />
        </mxCell>
        <mxCell id="Hs5gXcW-IA7D_YXBJcAZ-8" style="edgeStyle=orthogonalEdgeStyle;rounded=0;orthogonalLoop=1;jettySize=auto;html=1;entryX=0.5;entryY=0;entryDx=0;entryDy=0;fontSize=16;" parent="1" source="Hs5gXcW-IA7D_YXBJcAZ-10" target="Hs5gXcW-IA7D_YXBJcAZ-30" edge="1">
          <mxGeometry relative="1" as="geometry" />
        </mxCell>
        <mxCell id="Hs5gXcW-IA7D_YXBJcAZ-9" style="edgeStyle=orthogonalEdgeStyle;rounded=0;orthogonalLoop=1;jettySize=auto;html=1;entryX=0.5;entryY=0;entryDx=0;entryDy=0;fontSize=16;" parent="1" source="Hs5gXcW-IA7D_YXBJcAZ-10" target="Hs5gXcW-IA7D_YXBJcAZ-28" edge="1">
          <mxGeometry relative="1" as="geometry" />
        </mxCell>
        <mxCell id="Hs5gXcW-IA7D_YXBJcAZ-10" value="&lt;span style=&quot;font-weight: normal&quot;&gt;&lt;font style=&quot;font-size: 14px&quot;&gt;数据管理&lt;/font&gt;&lt;/span&gt;" style="shape=process;whiteSpace=wrap;html=1;backgroundOutline=1;rounded=1;fontSize=16;flipH=1;" parent="1" vertex="1">
          <mxGeometry x="261" y="220" width="120" height="50" as="geometry" />
        </mxCell>
        <mxCell id="Hs5gXcW-IA7D_YXBJcAZ-12" style="edgeStyle=orthogonalEdgeStyle;rounded=0;orthogonalLoop=1;jettySize=auto;html=1;entryX=0.5;entryY=0;entryDx=0;entryDy=0;fontSize=16;" parent="1" source="Hs5gXcW-IA7D_YXBJcAZ-15" target="Hs5gXcW-IA7D_YXBJcAZ-33" edge="1">
          <mxGeometry relative="1" as="geometry" />
        </mxCell>
        <mxCell id="Hs5gXcW-IA7D_YXBJcAZ-13" style="edgeStyle=orthogonalEdgeStyle;rounded=0;orthogonalLoop=1;jettySize=auto;html=1;entryX=0.5;entryY=0;entryDx=0;entryDy=0;fontSize=16;" parent="1" source="Hs5gXcW-IA7D_YXBJcAZ-15" target="Hs5gXcW-IA7D_YXBJcAZ-32" edge="1">
          <mxGeometry relative="1" as="geometry" />
        </mxCell>
        <mxCell id="Hs5gXcW-IA7D_YXBJcAZ-14" style="edgeStyle=orthogonalEdgeStyle;rounded=0;orthogonalLoop=1;jettySize=auto;html=1;entryX=0.5;entryY=0;entryDx=0;entryDy=0;fontSize=16;exitX=0.5;exitY=1;exitDx=0;exitDy=0;" parent="1" source="Hs5gXcW-IA7D_YXBJcAZ-15" target="Hs5gXcW-IA7D_YXBJcAZ-31" edge="1">
          <mxGeometry relative="1" as="geometry" />
        </mxCell>
        <mxCell id="Hs5gXcW-IA7D_YXBJcAZ-15" value="&lt;span style=&quot;font-weight: normal&quot;&gt;&lt;font style=&quot;font-size: 14px&quot;&gt;地图显示&lt;/font&gt;&lt;/span&gt;" style="shape=process;whiteSpace=wrap;html=1;backgroundOutline=1;rounded=1;fontSize=16;flipH=1;" parent="1" vertex="1">
          <mxGeometry x="459" y="220" width="120" height="50" as="geometry" />
        </mxCell>
        <mxCell id="Hs5gXcW-IA7D_YXBJcAZ-16" style="edgeStyle=orthogonalEdgeStyle;rounded=0;orthogonalLoop=1;jettySize=auto;html=1;entryX=0.5;entryY=0;entryDx=0;entryDy=0;fontSize=16;" parent="1" source="Hs5gXcW-IA7D_YXBJcAZ-17" target="Hs5gXcW-IA7D_YXBJcAZ-35" edge="1">
          <mxGeometry relative="1" as="geometry" />
        </mxCell>
        <mxCell id="Hs5gXcW-IA7D_YXBJcAZ-17" value="&lt;span style=&quot;font-weight: normal&quot;&gt;&lt;font style=&quot;font-size: 14px&quot;&gt;信息查询&lt;/font&gt;&lt;/span&gt;" style="shape=process;whiteSpace=wrap;html=1;backgroundOutline=1;rounded=1;fontSize=16;flipH=1;" parent="1" vertex="1">
          <mxGeometry x="640" y="220" width="120" height="50" as="geometry" />
        </mxCell>
        <mxCell id="Hs5gXcW-IA7D_YXBJcAZ-18" style="edgeStyle=orthogonalEdgeStyle;rounded=0;orthogonalLoop=1;jettySize=auto;html=1;entryX=0.5;entryY=0;entryDx=0;entryDy=0;fontSize=16;" parent="1" source="Hs5gXcW-IA7D_YXBJcAZ-22" target="Hs5gXcW-IA7D_YXBJcAZ-36" edge="1">
          <mxGeometry relative="1" as="geometry" />
        </mxCell>
        <mxCell id="Hs5gXcW-IA7D_YXBJcAZ-19" style="edgeStyle=orthogonalEdgeStyle;rounded=0;orthogonalLoop=1;jettySize=auto;html=1;entryX=0.5;entryY=0;entryDx=0;entryDy=0;fontSize=16;" parent="1" source="Hs5gXcW-IA7D_YXBJcAZ-22" target="Hs5gXcW-IA7D_YXBJcAZ-37" edge="1">
          <mxGeometry relative="1" as="geometry" />
        </mxCell>
        <mxCell id="Hs5gXcW-IA7D_YXBJcAZ-20" style="edgeStyle=orthogonalEdgeStyle;rounded=0;orthogonalLoop=1;jettySize=auto;html=1;entryX=0.5;entryY=0;entryDx=0;entryDy=0;fontSize=16;" parent="1" source="Hs5gXcW-IA7D_YXBJcAZ-22" target="Hs5gXcW-IA7D_YXBJcAZ-38" edge="1">
          <mxGeometry relative="1" as="geometry" />
        </mxCell>
        <mxCell id="Hs5gXcW-IA7D_YXBJcAZ-22" value="&lt;span style=&quot;font-weight: normal&quot;&gt;&lt;font style=&quot;font-size: 14px&quot;&gt;图层管理&lt;/font&gt;&lt;/span&gt;" style="shape=process;whiteSpace=wrap;html=1;backgroundOutline=1;rounded=1;fontSize=16;flipH=1;" parent="1" vertex="1">
          <mxGeometry x="808.5" y="220" width="120" height="50" as="geometry" />
        </mxCell>
        <mxCell id="Hs5gXcW-IA7D_YXBJcAZ-28" value="mxd" style="rounded=1;whiteSpace=wrap;html=1;fontSize=16;" parent="1" vertex="1">
          <mxGeometry x="240" y="350" width="40" height="130" as="geometry" />
        </mxCell>
        <mxCell id="Hs5gXcW-IA7D_YXBJcAZ-29" value="shp" style="rounded=1;whiteSpace=wrap;html=1;fontSize=16;" parent="1" vertex="1">
          <mxGeometry x="313" y="350" width="40" height="130" as="geometry" />
        </mxCell>
        <mxCell id="Hs5gXcW-IA7D_YXBJcAZ-30" value="lyr" style="rounded=1;whiteSpace=wrap;html=1;fontSize=16;" parent="1" vertex="1">
          <mxGeometry x="387" y="350" width="40" height="130" as="geometry" />
        </mxCell>
        <mxCell id="Hs5gXcW-IA7D_YXBJcAZ-31" value="地&lt;br&gt;图&lt;br&gt;缩&lt;br&gt;放" style="rounded=1;whiteSpace=wrap;html=1;fontSize=16;" parent="1" vertex="1">
          <mxGeometry x="460" y="350" width="40" height="130" as="geometry" />
        </mxCell>
        <mxCell id="Hs5gXcW-IA7D_YXBJcAZ-32" value="地&lt;br&gt;图&lt;br&gt;放&lt;br&gt;大" style="rounded=1;whiteSpace=wrap;html=1;fontSize=16;" parent="1" vertex="1">
          <mxGeometry x="534" y="350" width="40" height="130" as="geometry" />
        </mxCell>
        <mxCell id="Hs5gXcW-IA7D_YXBJcAZ-33" value="全&lt;br&gt;图&lt;br&gt;展&lt;br&gt;示" style="rounded=1;whiteSpace=wrap;html=1;fontSize=16;" parent="1" vertex="1">
          <mxGeometry x="607" y="350" width="40" height="130" as="geometry" />
        </mxCell>
        <mxCell id="Hs5gXcW-IA7D_YXBJcAZ-35" value="属&lt;br&gt;性&lt;br&gt;查&lt;br&gt;询" style="rounded=1;whiteSpace=wrap;html=1;fontSize=16;" parent="1" vertex="1">
          <mxGeometry x="680" y="350" width="40" height="130" as="geometry" />
        </mxCell>
        <mxCell id="Hs5gXcW-IA7D_YXBJcAZ-36" value="添&lt;br&gt;加" style="rounded=1;whiteSpace=wrap;html=1;fontSize=16;" parent="1" vertex="1">
          <mxGeometry x="754" y="350" width="40" height="130" as="geometry" />
        </mxCell>
        <mxCell id="Hs5gXcW-IA7D_YXBJcAZ-37" value="删&lt;br&gt;除" style="rounded=1;whiteSpace=wrap;html=1;fontSize=16;" parent="1" vertex="1">
          <mxGeometry x="827" y="350" width="40" height="130" as="geometry" />
        </mxCell>
        <mxCell id="Hs5gXcW-IA7D_YXBJcAZ-38" value="属&lt;br&gt;性&lt;br&gt;表" style="rounded=1;whiteSpace=wrap;html=1;fontSize=16;" parent="1" vertex="1">
          <mxGeometry x="900.5" y="350" width="40" height="130" as="geometry" />
        </mxCell>
      </root>
    </mxGraphModel>
  </diagram>
</mxfile>
